# xmcd CD database file
#
# Track frame offsets:
#	150
#	21169
#	53703
#	80067
#	99941
#	127063
#	152000
#	192275
#	239996
#	262946
#	295974
#
# Disc length: 4454 seconds
#
# Revision: 3
# Processed by: cddbd v1.5.2PL0 Copyright (c) Steve Scherf et al.
# Submitted via: CDex 1.51
#
DISCID=9a11640b
DTITLE=17 Etta James - Coleção Folha Grandes Vozes
DYEAR=2012
DGENRE=Blues
TTITLE0=I Just Wanna Make Love To You
TTITLE1=I'd Rather Go Blind
TTITLE2=How Strong Is a Woman
TTITLE3=A Lover Is Forever
TTITLE4=Beware
TTITLE5=Come to Mama
TTITLE6=Respect Yourself
TTITLE7=W.O.M.A.N.
TTITLE8=Dust My Broom
TTITLE9=Medley: At Last - Trust in Me - A Sunday Kind of Love
TTITLE10=Sugar On The Floor
EXTD=YEAR: 2012
EXTT0=
EXTT1=
EXTT2=
EXTT3=
EXTT4=
EXTT5=
EXTT6=
EXTT7=
EXTT8=
EXTT9=
EXTT10=
PLAYORDER=
